<svg id="Layer_1" data-name="Layer 1" xmlns="http://www.w3.org/2000/svg" viewBox="0 0 250.82 285.33">
  <title>srux-logo</title>
  <path d="M186.54,285.14H-.84V-.19H47.31c-2.69,4.41-6,8.44-7.83,13.06-8.13,20.36-8.23,40.06,6.1,58.2A52.39,52.39,0,0,0,69.66,88,91.42,91.42,0,0,0,84,91.46c8.19,1.5,16.47,2.56,24.65,4.1,5.2,1,10.36,2.33,15.45,3.81,7.85,2.27,14.29,6.83,19.86,12.74a44,44,0,0,1,9,14c4.64,11.62,4.59,23.45,1,35.3a32.78,32.78,0,0,1-18.45,21.16c-4.31,2-8.78,3.67-13.66,3.83a26.82,26.82,0,0,0-4.35.55c-2.35.45-3,1.8-1.74,3.83,1,1.64,2.29,3.12,3.44,4.68,4.41,6,8.8,11.93,13.24,17.86,3.34,4.45,6.78,8.82,10.11,13.27,4.34,5.8,8.58,11.68,12.93,17.47s8.92,11.67,13.35,17.53C174.76,269.4,180.64,277.28,186.54,285.14Z" transform="translate(0.84 0.19)"/>
  <path d="M250,285.14H222.17q-33-43.75-65.93-87.59a55.52,55.52,0,0,0,14.86-9.78c7.72-7.35,12.15-16.37,14.71-26.52,2.72-10.8,2.25-21.58-.32-32.3a64.47,64.47,0,0,0-9-21.59,54.77,54.77,0,0,0-13.06-13,66.75,66.75,0,0,0-25.55-12.06c-8.29-1.81-16.79-2.62-25.18-4-6.44-1-13-1.09-19.29-3.3a55.92,55.92,0,0,1-16.72-9.36,26.22,26.22,0,0,1-8.61-12.81A50.49,50.49,0,0,1,67,25a33.88,33.88,0,0,1,8.47-14.87A46.11,46.11,0,0,1,80.23,6C84.65,2.52,89.4-.19,95.29-.19H250Z" transform="translate(0.84 0.19)"/>
</svg>
